<?xml version="1.0" standalone="no"?>
<!DOCTYPE svg PUBLIC "-//W3C//DTD SVG 20010904//EN"
 "http://www.w3.org/TR/2001/REC-SVG-20010904/DTD/svg10.dtd">
<svg version="1.0" xmlns="http://www.w3.org/2000/svg"
 width="300.000000pt" height="300.000000pt" viewBox="0 0 300.000000 300.000000"
 preserveAspectRatio="xMidYMid meet">
<metadata>
Created by potrace 1.11, written by Peter Selinger 2001-2013
</metadata>
<g transform="translate(0.000000,300.000000) scale(0.100000,-0.100000)"
fill="#000000" stroke="none">
<path d="M0 2064 c0 -880 1 -938 18 -950 11 -9 13 -13 4 -14 -7 0 -10 -4 -7
-10 3 -6 1 -10 -4 -10 -8 0 -11 -167 -11 -540 l0 -540 1500 0 1500 0 0 1500 0
1500 -1500 0 -1500 0 0 -936z m173 908 c3 -4 -15 -8 -39 -9 -25 -1 -42 3 -39
8 7 11 72 12 78 1z m143 -11 c-3 -4 -17 -6 -31 -3 -14 2 -32 -1 -40 -8 -15
-12 -22 0 -8 13 10 10 85 8 79 -2z m-186 -21 c0 -5 -8 -10 -17 -10 -15 0 -16
2 -3 10 19 12 20 12 20 0z m366 -5 c-22 -17 -36 -19 -36 -7 0 14 12 22 34 22
21 -1 21 -1 2 -15z m-361 -30 l30 -13 -42 -1 c-32 -1 -43 3 -43 14 0 18 16 18
55 0z m75 -25 c18 -12 2 -12 -25 0 -13 6 -15 9 -5 9 8 0 22 -4 30 -9z m71 -33
c-6 -6 -18 -1 -32 12 l-22 20 31 -11 c19 -7 28 -16 23 -21z m586 17 c-3 -3
-12 -4 -19 -1 -8 3 -5 6 6 6 11 1 17 -2 13 -5z m-562 -34 c-3 -5 -12 -10 -18
-10 -7 0 -6 4 3 10 19 12 23 12 15 0z m215 6 c0 -3 -4 -8 -10 -11 -5 -3 -10
-1 -10 4 0 6 5 11 10 11 6 0 10 -2 10 -4z m230 -28 c0 -16 -3 -19 -11 -11 -6
6 -8 16 -5 22 11 17 16 13 16 -11z m503 -7 c3 -13 1 -18 -8 -14 -8 2 -13 13
-12 23 1 23 13 17 20 -9z m-938 -1 c3 -6 -1 -7 -9 -4 -18 7 -21 14 -7 14 6 0
13 -4 16 -10z m10 -29 c3 -5 1 -12 -5 -16 -5 -3 -10 1 -10 9 0 18 6 21 15 7z
m412 -276 c-1 -30 -4 -55 -8 -55 -3 0 -5 10 -5 23 1 12 -2 30 -7 40 -9 20 -3
47 11 47 5 0 9 -25 9 -55z m-182 -35 c-3 -5 -12 -10 -18 -10 -7 0 -6 4 3 10
19 12 23 12 15 0z m182 -82 c-3 -7 -5 -2 -5 12 0 14 2 19 5 13 2 -7 2 -19 0
-25z m740 -60 c-3 -8 -6 -5 -6 6 -1 11 2 17 5 13 3 -3 4 -12 1 -19z m-95 -43
c-3 -23 -9 -35 -19 -35 -10 0 -13 6 -9 16 5 14 4 15 -9 4 -8 -7 -15 -9 -15 -4
0 5 -5 2 -10 -6 -5 -8 -10 -10 -10 -5 0 12 20 43 20 31 0 -5 7 -3 15 4 8 7 15
9 15 4 0 -5 5 -1 11 9 14 24 16 22 11 -18z m268 -5 c-6 -11 -13 -20 -16 -20
-2 0 0 9 6 20 6 11 13 20 16 20 2 0 0 -9 -6 -20z m-240 -25 c0 -8 -2 -15 -4
-15 -2 0 -6 7 -10 15 -3 8 -1 15 4 15 6 0 10 -7 10 -15z m-1073 -1 c-3 -3 -12
-4 -19 -1 -8 3 -5 6 6 6 11 1 17 -2 13 -5z m1017 -10 c23 -9 20 -19 -11 -33
-33 -15 -51 0 -28 23 19 18 18 18 39 10z m256 -9 c0 -10 -65 -64 -77 -65 -7 0
-13 -4 -13 -10 0 -15 -58 -42 -65 -30 -9 14 5 32 20 26 7 -2 16 2 19 10 3 9 9
13 13 11 12 -7 48 9 49 22 1 6 2 16 3 22 0 6 8 9 16 5 8 -3 15 -1 15 4 0 6 5
10 10 10 6 0 10 -2 10 -5z m-380 -15 c0 -5 -4 -10 -10 -10 -5 0 -10 5 -10 10
0 6 5 10 10 10 6 0 10 -4 10 -10z m301 -7 c13 -16 12 -17 -3 -4 -10 7 -18 15
-18 17 0 8 8 3 21 -13z m-794 -35 c-3 -7 -5 -2 -5 12 0 14 2 19 5 13 2 -7 2
-19 0 -25z m423 -2 c0 -2 -8 -10 -17 -17 -16 -13 -17 -12 -4 4 13 16 21 21 21
13z m250 -36 c0 -21 -15 -27 -25 -10 -7 12 2 30 16 30 5 0 9 -9 9 -20z m-305
0 c-3 -5 -12 -10 -18 -10 -7 0 -6 4 3 10 19 12 23 12 15 0z m177 -42 c-6 -6
-19 -7 -29 -3 -12 5 -14 9 -5 12 6 3 9 9 6 15 -4 5 4 5 16 -2 15 -8 19 -15 12
-22z m-142 -23 c-13 -14 -26 -23 -28 -20 -5 5 36 45 46 45 3 0 -5 -11 -18 -25z
m-354 3 c4 -7 3 -8 -4 -4 -6 4 -20 3 -29 -2 -10 -5 -34 -12 -53 -15 l-35 -6
33 17 c39 21 78 26 88 10z m127 5 c-7 -2 -21 -2 -30 0 -10 3 -4 5 12 5 17 0
24 -2 18 -5z m191 -74 c-3 -5 -10 -6 -16 -3 -7 4 -8 2 -4 -4 4 -7 14 -12 23
-12 21 0 11 -11 -14 -14 -10 -2 -21 1 -25 7 -9 15 13 46 29 40 7 -3 10 -9 7
-14z m204 -4 c-3 -3 -9 2 -12 12 -6 14 -5 15 5 6 7 -7 10 -15 7 -18z m-285
-10 c-7 -21 -12 -19 -10 4 0 11 5 18 9 15 4 -3 5 -11 1 -19z m-112 -72 c13
-16 12 -17 -3 -4 -10 7 -18 15 -18 17 0 8 8 3 21 -13z m1102 -27 c94 -32 141
-55 227 -112 69 -45 174 -159 164 -176 -3 -5 -42 -38 -87 -73 l-80 -64 -86 59
c-104 71 -198 116 -270 130 -68 13 -186 13 -231 0 -49 -14 -60 -8 -105 60 -22
33 -43 60 -48 60 -4 0 -12 12 -18 27 -8 22 -12 24 -19 13 -7 -11 -10 -5 -10
21 0 35 1 36 58 53 110 32 138 35 282 32 125 -3 156 -7 223 -30z m-943 9 c0
-2 -9 -3 -19 -2 -11 0 -18 5 -15 9 4 6 34 0 34 -7z m350 -45 c-6 -11 -15 -18
-20 -15 -13 8 0 35 16 35 12 0 12 -4 4 -20z m-693 -52 c-2 -13 -4 -5 -4 17 -1
22 1 32 4 23 2 -10 2 -28 0 -40z m-195 -56 c-7 -2 -9 -9 -5 -15 3 -7 2 -8 -2
-4 -16 14 -14 36 3 29 10 -4 12 -7 4 -10z m195 -14 c-3 -7 -5 -2 -5 12 0 14 2
19 5 13 2 -7 2 -19 0 -25z m-172 -8 c3 -5 1 -10 -4 -10 -6 0 -11 5 -11 10 0 6
2 10 4 10 3 0 8 -4 11 -10z m172 -87 c-2 -16 -4 -3 -4 27 0 30 2 43 4 28 2
-16 2 -40 0 -55z m-210 41 c-3 -3 -12 -4 -19 -1 -8 3 -5 6 6 6 11 1 17 -2 13
-5z m18 -32 c-3 -3 -11 0 -18 7 -9 10 -8 11 6 5 10 -3 15 -9 12 -12z m45 -30
c0 -5 -7 -9 -15 -9 -8 0 -15 4 -15 9 0 4 7 8 15 8 8 0 15 -4 15 -8z m-154 -14
c4 -7 4 -10 -1 -6 -4 4 -15 2 -24 -5 -14 -11 -14 -10 -2 6 16 20 18 21 27 5z
m39 -8 c3 -6 -1 -7 -9 -4 -18 7 -21 14 -7 14 6 0 13 -4 16 -10z m73 -5 c2 -2
0 -5 -5 -8 -5 -3 -19 1 -33 9 l-25 14 30 -6 c17 -4 31 -8 33 -9z m573 -10 c5
4 6 -1 3 -9 -3 -9 -2 -16 4 -16 10 0 82 -104 82 -119 0 -6 6 -14 14 -18 8 -4
21 -21 30 -37 12 -25 13 -31 1 -43 -8 -8 -23 -43 -34 -79 -69 -221 -10 -440
159 -597 117 -108 250 -160 405 -158 136 2 237 40 374 143 46 35 89 67 96 72
13 10 86 -38 147 -96 l37 -36 -28 -43 c-15 -25 -49 -63 -75 -86 l-47 -42 -32
19 c-26 15 -50 18 -124 17 -51 -1 -93 -4 -93 -7 0 -3 -20 -13 -45 -23 -25 -11
-45 -25 -45 -33 0 -8 -6 -14 -14 -14 -18 0 -26 -22 -26 -70 0 -58 -16 -65
-144 -64 -171 3 -324 48 -453 135 -67 44 -163 140 -163 161 0 10 -7 18 -15 18
-17 0 -82 86 -117 155 -48 97 -88 249 -88 337 0 36 2 38 31 38 16 0 28 4 25 9
-3 5 1 11 9 15 11 4 15 21 15 61 l0 55 -35 0 c-19 0 -35 5 -35 11 0 21 60 189
86 241 34 68 77 125 82 110 2 -7 8 -10 13 -7z m-384 -72 c-3 -10 -5 -2 -5 17
0 19 2 27 5 18 2 -10 2 -26 0 -35z m885 -218 c5 -22 2 -25 -18 -22 -13 2 -26
6 -30 10 -4 3 3 4 15 2 12 -2 19 0 16 6 -6 8 1 29 9 29 2 0 6 -11 8 -25z m23
15 c3 -5 1 -10 -4 -10 -6 0 -11 5 -11 10 0 6 2 10 4 10 3 0 8 -4 11 -10z m62
-5 c0 -8 -4 -12 -9 -9 -5 3 -6 10 -3 15 9 13 12 11 12 -6z m-180 -17 c-3 -8
-6 -5 -6 6 -1 11 2 17 5 13 3 -3 4 -12 1 -19z m342 -7 c14 -10 26 -26 27 -35
3 -19 -1 -20 -27 -6 -18 10 -24 4 -20 -22 2 -12 -9 -9 -22 5 -7 6 -12 27 -12
45 0 37 17 42 54 13z m961 -27 c0 -8 -5 -12 -10 -9 -6 4 -8 11 -5 16 9 14 15
11 15 -7z m-1355 -52 c-9 -9 -35 8 -35 24 0 16 2 16 20 -1 11 -10 18 -20 15
-23z m495 5 c0 4 4 2 9 -5 4 -7 17 -15 27 -16 13 -2 20 -12 22 -32 2 -20 0
-25 -7 -15 -5 7 -13 11 -19 8 -10 -7 -35 18 -45 46 -5 13 -13 16 -27 12 -16
-5 -20 -2 -20 15 l0 21 30 -21 c17 -12 30 -18 30 -13z m-379 -61 c-17 -20 -61
-27 -61 -9 0 8 5 11 10 8 6 -3 10 -2 10 4 0 9 40 20 49 14 2 -1 -1 -9 -8 -17z
m82 8 c9 -4 17 -14 17 -23 0 -12 -2 -13 -8 -3 -5 8 -16 10 -27 6 -14 -6 -17
-4 -12 9 3 8 2 18 -4 21 -9 4 -1 2 34 -10z m197 -25 c0 -5 -4 -9 -8 -9 -5 0
-9 7 -9 15 0 8 4 12 9 9 4 -3 8 -9 8 -15z m-1175 -229 c3 -5 -1 -10 -10 -10
-9 0 -13 5 -10 10 3 6 8 10 10 10 2 0 7 -4 10 -10z m212 -486 c-3 -3 -12 -4
-19 -1 -8 3 -5 6 6 6 11 1 17 -2 13 -5z m-80 -80 c-3 -3 -12 -4 -19 -1 -8 3
-5 6 6 6 11 1 17 -2 13 -5z m140 -10 c-3 -3 -12 -4 -19 -1 -8 3 -5 6 6 6 11 1
17 -2 13 -5z"/>
</g>
</svg>
